<?xml version="1.0" encoding="UTF-8" standalone="no"?>
<svg width="60px" height="62px" viewBox="0 0 60 62" version="1.1" xmlns="http://www.w3.org/2000/svg" xmlns:xlink="http://www.w3.org/1999/xlink">
    <!-- Generator: Sketch 50.2 (55047) - http://www.bohemiancoding.com/sketch -->
    <title>si-glyph-wifi-1</title>
    <desc>Created with Sketch.</desc>
    <defs></defs>
    <g id="My-Cars" stroke="none" stroke-width="1" fill="none" fill-rule="evenodd">
        <g id="No-sign" transform="translate(-158.000000, -294.000000)" fill="#C8CDD2">
            <g id="si-glyph-wifi-1" transform="translate(158.000000, 294.000000)">
                <ellipse id="Oval" fill-rule="nonzero" cx="30.3947368" cy="22.6538462" rx="7.5" ry="7.55128205"></ellipse>
                <path d="M13.4946912,46.1025641 C5.02721011,41.0780238 0,32.5882832 0,23.2514936 C0,13.7337436 5.40777105,4.88978256 14.1606728,0 L15.7894737,2.81066242 C8.14400426,7.1383125 3.43265974,14.9080615 3.43265974,23.2514936 C3.43265974,31.4447671 7.81291624,38.8949476 15.191993,43.3304039 L13.4946912,46.1025641 Z" id="Shape" fill-rule="nonzero"></path>
                <path d="M44.2105263,43.3747615 C51.9519135,39.2116796 56.7260768,31.4449659 56.7260768,22.9336046 C56.7260768,14.5920075 52.0923301,6.90245938 44.5911291,2.68150323 L46.2022245,0 C54.7306835,4.76883164 60,13.4962565 60,22.9336046 C60,32.5754414 54.5607055,41.3916066 45.7588037,46.1025641 L44.2105263,43.3747615 Z" id="Shape" fill-rule="nonzero"></path>
                <path d="M20.999887,38.9487179 C15.3272049,35.5951559 11.8421053,29.7449235 11.8421053,23.5051949 C11.8421053,17.1680922 15.3944543,11.2789102 21.1779,7.94871795 L22.8947368,10.9088888 C18.2426628,13.639257 15.3865426,18.4027951 15.3865426,23.5051949 C15.3865426,28.5530652 18.2070602,33.2971286 22.7918849,36.0391816 L20.999887,38.9487179 Z" id="Shape" fill-rule="nonzero"></path>
                <path d="M37.8947368,35.3380494 C42.687338,32.7695861 45.6334555,28.0740547 45.6334555,22.8952717 C45.6334555,17.9409914 42.8787418,13.3405883 38.3901349,10.7188532 L40.067733,7.94871795 C45.5659012,11.1488329 48.9473684,16.8032573 48.9473684,22.8952717 C48.9473684,29.2270093 45.3519793,35.0108081 39.5085336,38.1538462 L37.8947368,35.3380494 Z" id="Shape" fill-rule="nonzero"></path>
                <polygon id="Rectangle-7" points="27.6315789 27.025641 33.1578947 27.025641 34.7368421 62 26.0526316 62"></polygon>
            </g>
        </g>
    </g>
</svg>