<?xml version="1.0" encoding="UTF-8" standalone="no"?><!DOCTYPE svg PUBLIC "-//W3C//DTD SVG 1.1//EN" "http://www.w3.org/Graphics/SVG/1.1/DTD/svg11.dtd"><svg width="100%" height="100%" viewBox="0 0 448 99" version="1.1" xmlns="http://www.w3.org/2000/svg" xmlns:xlink="http://www.w3.org/1999/xlink" xml:space="preserve" xmlns:serif="http://www.serif.com/" style="fill-rule:evenodd;clip-rule:evenodd;stroke-linejoin:round;stroke-miterlimit:1.41421;"><g id="final-copy-4" serif:id="final copy 4"><path id="Rounded-Rectangle-755" serif:id="Rounded Rectangle 755" d="M422.739,40.76l-16.439,-16.441l23.379,-23.379c1.168,-1.17 3.066,-1.17 4.238,0l12.201,12.202c1.17,1.17 1.17,3.068 0,4.239l-23.379,23.379Zm-8.041,8.041l0.013,0.013l-16.456,16.456l-0.013,-0.013l-31.95,31.95c-1.172,1.171 -3.068,1.171 -4.238,0l-12.202,-12.201c-1.171,-1.171 -1.171,-3.069 0,-4.239l31.95,-31.95l-31.483,-31.482c-1.169,-1.172 -1.169,-3.072 0,-4.243l12.214,-12.213c1.172,-1.172 3.072,-1.172 4.243,0l31.482,31.482l0.009,-0.009l16.44,16.439l-0.009,0.01Zm8.292,8.291l23.69,23.69c1.171,1.171 1.171,3.071 0,4.242l-12.214,12.214c-1.172,1.171 -3.07,1.171 -4.243,0l-23.69,-23.69l16.457,-16.456Z" style="fill:#33ceff;"/><clipPath id="_clip1"><path id="Rounded-Rectangle-7551" serif:id="Rounded Rectangle 755" d="M422.739,40.76l-16.439,-16.441l23.379,-23.379c1.168,-1.17 3.066,-1.17 4.238,0l12.201,12.202c1.17,1.17 1.17,3.068 0,4.239l-23.379,23.379Zm-8.041,8.041l0.013,0.013l-16.456,16.456l-0.013,-0.013l-31.95,31.95c-1.172,1.171 -3.068,1.171 -4.238,0l-12.202,-12.201c-1.171,-1.171 -1.171,-3.069 0,-4.239l31.95,-31.95l-31.483,-31.482c-1.169,-1.172 -1.169,-3.072 0,-4.243l12.214,-12.213c1.172,-1.172 3.072,-1.172 4.243,0l31.482,31.482l0.009,-0.009l16.44,16.439l-0.009,0.01Zm8.292,8.291l23.69,23.69c1.171,1.171 1.171,3.071 0,4.242l-12.214,12.214c-1.172,1.171 -3.07,1.171 -4.243,0l-23.69,-23.69l16.457,-16.456Z"/></clipPath><g clip-path="url(#_clip1)"><path id="Layer-515-copy" serif:id="Layer 515 copy" d="M381.912,48.706c-3.778,-3.779 -23.244,-23.246 -30.646,-30.647c-1.578,-1.578 -1.578,-4.138 0,-5.716c2.965,-2.967 7.58,-7.58 10.547,-10.546c1.578,-1.579 4.137,-1.579 5.716,0c3.642,3.641 10.204,10.204 16.384,16.383c3.075,3.957 4.927,8.909 4.927,14.307c0,5.223 -1.733,10.029 -4.629,13.92l-2.299,2.299Z" style="fill:url(#_Linear2);"/></g><path id="Rectangle-703-copy-19" serif:id="Rectangle 703 copy 19" d="M319.001,71.058c1.656,0 2.998,1.343 2.998,3l0,4c0,1.657 -1.342,3 -2.998,3l-33.001,0l-7,0c-1.658,0 -3,-1.343 -3,-3l0,-54c0,-1.657 1.342,-3 3,-3l40.001,0c1.656,0 2.998,1.343 2.998,3l0,4c0,1.657 -1.342,3 -2.998,3l-33.001,0l0,15l27,0c1.658,0 3.001,1.343 3.001,3l0,4c0,1.657 -1.343,3 -3.001,3l-27,0l0,15l33.001,0Zm-89.002,10c-2.137,0 -2.998,0 -2.998,0l-11.001,0l-4,0l-3.001,0c-1.656,0 -2.998,-1.343 -2.998,-3l0,-54c0,-1.657 1.342,-3 2.998,-3l21,0c16.569,0 30.001,13.432 30.001,30c0,16.569 -13.432,30 -30.001,30Zm0,-50c-1.424,0 -1.999,0 -1.999,0l-12,0l0,40l13.999,0c11.048,0 20.001,-8.954 20.001,-20c0,-11.046 -8.953,-20 -20.001,-20Zm-49.339,48.127l-4.254,-10.127l-29.793,0l-4.261,10.127c0,0 -0.669,1.863 -3.638,1.873l-8,0l24.33,-57.804l-0.129,0.315c0.685,-1.661 2.459,-2.511 4.116,-2.511l4.98,0c1.655,0 3.424,0.85 4.109,2.511l-0.129,-0.315l24.281,57.804l-7.983,0c-2.963,-0.01 -3.629,-1.873 -3.629,-1.873Zm-19.136,-45.553l-10.703,25.426l21.384,0l-10.681,-25.426Zm-43.493,47.426l-6.168,0c-3.129,-0.036 -4.789,-2.388 -4.789,-2.388l-15.909,-19.612l-10.134,0l0,19c0,1.657 -1.342,3 -2.998,3l-3.002,0l-1.001,0c-1.654,0 -2.999,-1.343 -2.999,-3l0,-54c0,-1.657 1.345,-3 2.999,-3l24.002,0c10.493,0 18.999,8.507 18.999,19c0,8.625 -5.748,15.902 -13.621,18.223l18.474,22.777l-3.853,0Zm-11,-41c0,-4.97 -4.029,-9 -8.999,-9l-16.72,0l-0.281,0l0,18l17.001,0c4.97,0 8.999,-4.029 8.999,-9Zm-56.03,-9l-19.001,0l0,47c0,1.657 -1.342,3 -3,3l-4.001,0c-1.656,0 -2.998,-1.343 -2.998,-3l0,-47l-19.001,0c-1.656,0 -3,-1.343 -3,-3l0,-4c0,-1.657 1.344,-3 3,-3l48.001,0c1.656,0 2.998,1.343 2.998,3l0,4c0,1.657 -1.342,3 -2.998,3Z" style="fill:#2a323a;"/></g><defs><linearGradient id="_Linear2" x1="0" y1="0" x2="1" y2="0" gradientUnits="userSpaceOnUse" gradientTransform="matrix(-37.5943,-15.115,15.115,-37.5943,387.606,33.0263)"><stop offset="0" style="stop-color:#002b75;stop-opacity:0.4"/><stop offset="0.51" style="stop-color:#178ddd;stop-opacity:0.0862745"/><stop offset="1" style="stop-color:#1da8f9;stop-opacity:0"/></linearGradient></defs></svg>