<?xml version="1.0" encoding="UTF-8" standalone="no"?><!DOCTYPE svg PUBLIC "-//W3C//DTD SVG 1.1//EN" "http://www.w3.org/Graphics/SVG/1.1/DTD/svg11.dtd"><svg width="100%" height="100%" viewBox="0 0 99 99" version="1.1" xmlns="http://www.w3.org/2000/svg" xmlns:xlink="http://www.w3.org/1999/xlink" xml:space="preserve" xmlns:serif="http://www.serif.com/" style="fill-rule:evenodd;clip-rule:evenodd;stroke-linejoin:round;stroke-miterlimit:1.41421;"><g id="final-copy-4" serif:id="final copy 4"><path id="Rounded-Rectangle-755" serif:id="Rounded Rectangle 755" d="M73.766,40.76l-16.44,-16.441l23.379,-23.379c1.168,-1.17 3.067,-1.17 4.238,0l12.202,12.202c1.169,1.17 1.169,3.068 0,4.239l-23.379,23.379Zm-8.041,8.041l0.013,0.013l-16.457,16.456l-0.013,-0.013l-31.95,31.95c-1.171,1.171 -3.068,1.171 -4.238,0l-12.201,-12.201c-1.172,-1.171 -1.172,-3.069 0,-4.239l31.949,-31.95l-31.482,-31.482c-1.17,-1.172 -1.17,-3.072 0,-4.243l12.213,-12.213c1.172,-1.172 3.072,-1.172 4.244,0l31.482,31.482l0.008,-0.009l16.441,16.439l-0.009,0.01Zm8.291,8.291l23.69,23.69c1.171,1.171 1.171,3.071 0,4.242l-12.214,12.214c-1.171,1.171 -3.07,1.171 -4.243,0l-23.689,-23.69l16.456,-16.456Z" style="fill:#2a323a;"/></g></svg>